<mxfile host="app.diagrams.net" agent="Mozilla/5.0 (Windows NT 10.0; Win64; x64) AppleWebKit/537.36 (KHTML, like Gecko) Chrome/139.0.0.0 Safari/537.36" version="28.0.6">
  <diagram name="Page-1" id="ClaCcgdxK0cMV_CqEcFI">
    <mxGraphModel dx="667" dy="935" grid="0" gridSize="10" guides="1" tooltips="1" connect="1" arrows="1" fold="1" page="0" pageScale="1" pageWidth="1169" pageHeight="827" math="0" shadow="0">
      <root>
        <mxCell id="0" />
        <mxCell id="1" parent="0" />
        <mxCell id="e2j5YQbnOUp1nQdinPn4-1" value="Entitet" style="rounded=0;whiteSpace=wrap;html=1;" vertex="1" parent="1">
          <mxGeometry x="140" y="170" width="120" height="60" as="geometry" />
        </mxCell>
        <mxCell id="e2j5YQbnOUp1nQdinPn4-2" value="Relasjon" style="rhombus;whiteSpace=wrap;html=1;" vertex="1" parent="1">
          <mxGeometry x="145.5" y="77" width="109" height="80" as="geometry" />
        </mxCell>
        <mxCell id="e2j5YQbnOUp1nQdinPn4-4" value="" style="ellipse;whiteSpace=wrap;html=1;" vertex="1" parent="1">
          <mxGeometry x="464" y="246" width="145" height="69" as="geometry" />
        </mxCell>
        <mxCell id="e2j5YQbnOUp1nQdinPn4-3" value="Flerverdi-attributt" style="ellipse;whiteSpace=wrap;html=1;" vertex="1" parent="1">
          <mxGeometry x="469.5" y="249" width="135" height="63" as="geometry" />
        </mxCell>
        <mxCell id="e2j5YQbnOUp1nQdinPn4-5" value="Attributt" style="ellipse;whiteSpace=wrap;html=1;" vertex="1" parent="1">
          <mxGeometry x="136" y="255" width="135" height="63" as="geometry" />
        </mxCell>
        <mxCell id="e2j5YQbnOUp1nQdinPn4-6" value="&lt;u&gt;NÃ¸kkel-attributt&lt;/u&gt;" style="ellipse;whiteSpace=wrap;html=1;" vertex="1" parent="1">
          <mxGeometry x="304" y="252" width="135" height="63" as="geometry" />
        </mxCell>
        <mxCell id="e2j5YQbnOUp1nQdinPn4-7" value="Utledbart attributt" style="ellipse;whiteSpace=wrap;html=1;dashed=1;" vertex="1" parent="1">
          <mxGeometry x="467" y="333" width="135" height="63" as="geometry" />
        </mxCell>
        <mxCell id="e2j5YQbnOUp1nQdinPn4-8" value="-&quot;-" style="ellipse;whiteSpace=wrap;html=1;" vertex="1" parent="1">
          <mxGeometry x="229" y="419" width="110" height="51" as="geometry" />
        </mxCell>
        <mxCell id="e2j5YQbnOUp1nQdinPn4-9" value="-&quot;-" style="ellipse;whiteSpace=wrap;html=1;" vertex="1" parent="1">
          <mxGeometry x="364.5" y="422" width="105" height="53" as="geometry" />
        </mxCell>
        <mxCell id="e2j5YQbnOUp1nQdinPn4-10" value="Sammensatt attributt" style="ellipse;whiteSpace=wrap;html=1;" vertex="1" parent="1">
          <mxGeometry x="304" y="333" width="135" height="63" as="geometry" />
        </mxCell>
        <mxCell id="e2j5YQbnOUp1nQdinPn4-11" value="" style="endArrow=classic;html=1;rounded=0;fontSize=12;startSize=8;endSize=8;curved=1;" edge="1" parent="1" source="e2j5YQbnOUp1nQdinPn4-10" target="e2j5YQbnOUp1nQdinPn4-8">
          <mxGeometry width="50" height="50" relative="1" as="geometry">
            <mxPoint x="375" y="405" as="sourcePoint" />
            <mxPoint x="425" y="355" as="targetPoint" />
          </mxGeometry>
        </mxCell>
        <mxCell id="e2j5YQbnOUp1nQdinPn4-12" value="" style="endArrow=classic;html=1;rounded=0;fontSize=12;startSize=8;endSize=8;curved=1;exitX=0.5;exitY=1;exitDx=0;exitDy=0;" edge="1" parent="1" source="e2j5YQbnOUp1nQdinPn4-10" target="e2j5YQbnOUp1nQdinPn4-9">
          <mxGeometry width="50" height="50" relative="1" as="geometry">
            <mxPoint x="380" y="409" as="sourcePoint" />
            <mxPoint x="348" y="438" as="targetPoint" />
          </mxGeometry>
        </mxCell>
      </root>
    </mxGraphModel>
  </diagram>
</mxfile>
